<svg xmlns="http://www.w3.org/2000/svg" version="1.1" xmlns:xlink="http://www.w3.org/1999/xlink" xmlns:svgjs="http://svgjs.dev/svgjs" width="1000" height="999" viewBox="0 0 1000 999"><g transform="matrix(1,0,0,1,-0.215743440233382,-0.21552769679306039)"><svg viewBox="0 0 343 343" data-background-color="#ffffff" preserveAspectRatio="xMidYMid meet" height="999" width="1000" xmlns="http://www.w3.org/2000/svg" xmlns:xlink="http://www.w3.org/1999/xlink"><g id="tight-bounds" transform="matrix(1,0,0,1,0.0740000000000407,0.07400000000001228)"><svg viewBox="0 0 342.85155851775386 342.85155851775386" height="342.85155851775386" width="342.85155851775386"><g><svg></svg></g><g><svg viewBox="0 0 342.85155851775386 342.85155851775386" height="342.85155851775386" width="342.85155851775386"><g><path d="M0 171.426c0-94.676 76.75-171.426 171.426-171.426 94.676 0 171.426 76.75 171.426 171.426 0 94.676-76.75 171.426-171.426 171.426-94.676 0-171.426-76.75-171.426-171.426zM171.426 337.379c91.654 0 165.954-74.3 165.953-165.953 0-91.654-74.3-165.954-165.953-165.954-91.654 0-165.954 74.3-165.954 165.954 0 91.654 74.3 165.954 165.954 165.953z" data-fill-palette-color="tertiary" fill="#1ebbd7" stroke="transparent"></path><ellipse rx="164.56874808852186" ry="164.56874808852186" cx="171.42577925887693" cy="171.42577925887693" fill="#1ebbd7" stroke="transparent" stroke-width="0" fill-opacity="1" data-fill-palette-color="tertiary"></ellipse></g><g transform="matrix(1,0,0,1,64.84655864529837,141.085993807957)"><svg viewBox="0 0 213.1584412271571 60.679570901839824" height="60.679570901839824" width="213.1584412271571"><g><svg viewBox="0 0 213.1584412271571 60.679570901839824" height="60.679570901839824" width="213.1584412271571"><g><svg viewBox="0 0 213.1584412271571 60.679570901839824" height="60.679570901839824" width="213.1584412271571"><g><svg viewBox="0 0 213.1584412271571 60.679570901839824" height="60.679570901839824" width="213.1584412271571"><g id="textblocktransform"><svg viewBox="0 0 213.1584412271571 60.679570901839824" height="60.679570901839824" width="213.1584412271571" id="textblock"><g><svg viewBox="0 0 213.1584412271571 60.679570901839824" height="60.679570901839824" width="213.1584412271571"><g transform="matrix(1,0,0,1,0,0)"><svg width="213.1584412271571" viewBox="1.0499999523162842 -37.5 133.42999267578125 37.9900016784668" height="60.679570901839824" data-palette-color="#ffffff"><path d="M23.22 0L20.41-9.28 8.4-9.28 5.64 0 1.05 0 12.5-35.55 16.33-35.55 27.81 0 23.22 0ZM14.4-29.3L9.57-13.13 19.26-13.13 14.4-29.3ZM51.17-14.55L51.17-11.94Q51.17-5.76 48.95-2.64 46.73 0.49 42.5 0.49L42.5 0.49Q38.3 0.49 36.2-3.13L36.2-3.13 35.98 0 32.05 0 32.05-37.5 36.35-37.5 36.35-23.51Q38.47-26.9 42.45-26.9L42.45-26.9Q46.8-26.9 48.97-23.83 51.14-20.75 51.17-14.55L51.17-14.55ZM46.87-11.74L46.87-14.4Q46.87-19.09 45.57-21.08 44.26-23.07 41.33-23.07L41.33-23.07Q37.99-23.07 36.35-19.46L36.35-19.46 36.35-6.88Q37.96-3.32 41.38-3.32L41.38-3.32Q44.31-3.32 45.58-5.37 46.85-7.42 46.87-11.74L46.87-11.74ZM75.83-14.55L75.83-11.94Q75.83-5.76 73.6-2.64 71.38 0.49 67.16 0.49L67.16 0.49Q62.96 0.49 60.86-3.13L60.86-3.13 60.64 0 56.71 0 56.71-37.5 61.01-37.5 61.01-23.51Q63.13-26.9 67.11-26.9L67.11-26.9Q71.45-26.9 73.63-23.83 75.8-20.75 75.83-14.55L75.83-14.55ZM71.53-11.74L71.53-14.4Q71.53-19.09 70.22-21.08 68.92-23.07 65.99-23.07L65.99-23.07Q62.64-23.07 61.01-19.46L61.01-19.46 61.01-6.88Q62.62-3.32 66.04-3.32L66.04-3.32Q68.96-3.32 70.23-5.37 71.5-7.42 71.53-11.74L71.53-11.74ZM99.43 0L94.94 0Q94.55-0.85 94.38-2.88L94.38-2.88Q92.08 0.49 88.52 0.49L88.52 0.49Q84.93 0.49 82.91-1.53 80.9-3.54 80.9-7.2L80.9-7.2Q80.9-11.23 83.64-13.6 86.37-15.97 91.13-16.02L91.13-16.02 94.3-16.02 94.3-18.82Q94.3-21.19 93.25-22.19 92.2-23.19 90.06-23.19L90.06-23.19Q88.1-23.19 86.88-22.03 85.66-20.87 85.66-19.09L85.66-19.09 81.34-19.09Q81.34-21.12 82.54-22.96 83.73-24.8 85.76-25.85 87.79-26.9 90.28-26.9L90.28-26.9Q94.33-26.9 96.44-24.89 98.55-22.88 98.6-19.02L98.6-19.02 98.6-5.69Q98.63-2.64 99.43-0.39L99.43-0.39 99.43 0ZM89.18-3.44L89.18-3.44Q90.76-3.44 92.2-4.32 93.64-5.2 94.3-6.52L94.3-6.52 94.3-12.82 91.86-12.82Q88.79-12.77 87-11.44 85.22-10.11 85.22-7.71L85.22-7.71Q85.22-5.47 86.13-4.46 87.03-3.44 89.18-3.44ZM105.29-26.42L109.37-26.42 109.49-23.56Q112-26.9 115.91-26.9L115.91-26.9Q122.91-26.9 123.01-17.55L123.01-17.55 123.01 0 118.72 0 118.72-17.36Q118.72-20.46 117.68-21.77 116.64-23.07 114.57-23.07L114.57-23.07Q112.95-23.07 111.67-22 110.39-20.92 109.61-19.19L109.61-19.19 109.61 0 105.29 0 105.29-26.42ZM134.14-26.42L134.14 0 129.82 0 129.82-26.42 134.14-26.42ZM134.48-33.42L134.48-33.42Q134.48-32.32 133.87-31.59 133.26-30.86 132.02-30.86L132.02-30.86Q130.8-30.86 130.19-31.59 129.58-32.32 129.58-33.42 129.58-34.52 130.19-35.28 130.8-36.04 132.02-36.04 133.24-36.04 133.86-35.27 134.48-34.5 134.48-33.42Z" opacity="1" transform="matrix(1,0,0,1,0,0)" fill="#ffffff" class="undefined-text-0" data-fill-palette-color="quaternary" id="text-0"></path></svg></g></svg></g></svg></g></svg></g><g></g></svg></g></svg></g></svg></g></svg></g><defs></defs></svg><rect width="342.85155851775386" height="342.85155851775386" fill="none" stroke="none" visibility="hidden"></rect></g></svg></g></svg>